<?xml version="1.0" encoding="utf-8"?>
<!-- Generator: Adobe Illustrator 19.2.1, SVG Export Plug-In . SVG Version: 6.00 Build 0)  -->
<svg version="1.1" id="Capa_1" xmlns="http://www.w3.org/2000/svg" xmlns:xlink="http://www.w3.org/1999/xlink" x="0px" y="0px"
	 viewBox="0 0 100 100" style="enable-background:new 0 0 100 100;" xml:space="preserve">
<style type="text/css">
	.st0{fill:#FFFFFF;}
	.st1{opacity:0.6;}
</style>
<path class="st0" d="M46.7,75.4C45.6,71.3,32.6,60,26.9,55.2c-0.4-0.3-3.8-2.6-7.3-1.6V38.4C19.4,35.5,17.2,30,11,30
	c-6.3,0-8.2,5.7-8.4,8.9V71c0,0.6,0.2,1.2,0.7,1.7l15.1,15.6c-1.2,4.6-1.3,7.7-0.1,9.2c0.6,0.8,1.5,1.3,2.5,1.3h17.8
	c1.2,0,2.3-0.6,3.3-1.9C45.2,92.6,47.8,79.4,46.7,75.4z M38.2,93.8H22.3c0.1-1.3,0.5-3.7,1.1-5.7c0.2-0.8,0-1.7-0.6-2.4L7.5,69.9
	v-31c0-0.4,0.3-4.2,3.5-4.2s3.7,3.3,3.8,3.8v20.9c0,0,0,0,0,0.1s0,0,0,0.1l0.3,4.8c0,0.5,0.2,1.1,0.6,1.5L23,74
	c0.5,0.5,1.1,0.8,1.8,0.8c0.6,0,1.1-0.2,1.6-0.6c1-0.9,1.1-2.4,0.2-3.4l-6.8-7.5l-0.2-3.4c0.2-0.7,0.6-1.4,1.2-1.7
	c1-0.4,2.6,0.5,3.1,0.8C32,65.8,41.3,74.5,42,76.7C42.9,79.6,40.1,91.6,38.2,93.8z"/>
<path class="st0" d="M58.5,96.8c1,1.2,2,1.9,3.3,1.9h17.8c1,0,1.9-0.5,2.5-1.3c1.1-1.5,1.1-4.6-0.1-9.2l15.1-15.6
	c0.4-0.4,0.7-1,0.7-1.7V38.8c-0.1-3.1-2-8.9-8.4-8.9c-6.3,0-8.4,5.5-8.6,8.4v15.2c-3.4-1-6.9,1.3-7.3,1.6
	C67.8,60,54.8,71.3,53.7,75.4C52.6,79.4,55.3,92.6,58.5,96.8z M58.4,76.7c0.7-2.1,10-10.8,18.1-17.7c0.5-0.3,2.1-1.1,3.1-0.8
	c0.6,0.2,1,1,1.2,1.7l-0.2,3.4l-6.8,7.5c-0.9,1-0.8,2.5,0.2,3.4c0.5,0.4,1,0.6,1.6,0.6c0.7,0,1.3-0.3,1.8-0.8l7.3-8.1
	c0.4-0.4,0.6-0.9,0.6-1.5l0.3-4.8c0,0,0,0,0-0.1s0,0,0-0.1V38.6c0.1-0.5,0.5-3.8,3.8-3.8s3.5,3.7,3.5,4.2v31L77.6,85.8
	c-0.6,0.6-0.8,1.5-0.6,2.4c0.6,2,1,4.4,1.1,5.7H62.2C60.4,91.6,57.6,79.6,58.4,76.7z"/>
<g class="st1">
	<path class="st0" d="M50.1,35.5c-4.5,0-8.1-3.6-8.1-8.1s3.6-8.1,8.1-8.1s8.1,3.6,8.1,8.1S54.6,35.5,50.1,35.5z M50.1,24.2
		c-1.8,0-3.3,1.5-3.3,3.3s1.5,3.3,3.3,3.3s3.3-1.5,3.3-3.3C53.4,25.6,51.9,24.2,50.1,24.2z"/>
</g>
<g class="st1">
	<path class="st0" d="M55.7,53.1H44.5c-1.3,0-2.4-1.1-2.4-2.4v-5.3c-1.5-0.6-2.7-1.4-3.6-2.1L33.8,46c-1.1,0.7-2.6,0.3-3.3-0.9
		L25,35.4c-0.7-1.2-0.3-2.6,0.9-3.3l4.8-2.7c-0.2-1.5-0.1-2.9,0-4l-4.8-2.7c-0.6-0.3-1-0.8-1.1-1.5c-0.2-0.6-0.1-1.3,0.2-1.8
		l5.6-9.7c0.3-0.6,0.8-1,1.5-1.1c0.6-0.2,1.3-0.1,1.8,0.2l5,2.8c1.2-0.9,2.4-1.5,3.4-1.9V3.9c0-1.3,1.1-2.4,2.4-2.4h11.2
		c1.3,0,2.4,1.1,2.4,2.4v5.6c1.5,0.5,2.6,1.3,3.4,1.9l4.9-2.8c0.9-0.6,2.4-0.2,3.1,1l5.6,9.7c0.3,0.6,0.4,1.2,0.2,1.8
		c-0.2,0.6-0.6,1.1-1.1,1.5l-5,2.9c0.2,1.4,0.1,2.7,0,3.7l5,2.9c1.2,0.7,1.6,2.1,0.9,3.3L69.7,45c-0.3,0.6-0.8,1-1.5,1.1
		c-0.6,0.2-1.3,0.1-1.8-0.2l-4.8-2.7c-1.2,1-2.5,1.7-3.5,2.1v5.5C58.1,52,57,53.1,55.7,53.1z M46.9,48.3h6.4v-4.8
		c0-1.1,0.8-2.1,1.9-2.4c0,0,2.5-0.6,4.2-2.5c0.8-0.9,2-1.1,3-0.5l4.3,2.4l3.2-5.5l-4.3-2.5c-0.9-0.5-1.4-1.6-1.1-2.7
		c0,0,0.6-2.5,0-5.1c-0.2-1,0.2-2.1,1.1-2.6l4.3-2.5L66.7,14l-4.4,2.6c-1.1,0.7-2.6,0.3-3.2-0.8c0,0-1.1-1.6-3.7-2
		c-1.2-0.2-2-1.2-2-2.4V6.3H47v5c0,1.1-0.8,2.1-1.9,2.4c0,0-2.2,0.5-4.3,2.5c-0.8,0.7-1.9,0.9-2.9,0.3L33.6,14l-3.2,5.5l4.2,2.4
		c1,0.5,1.4,1.7,1.1,2.7c0,0-0.7,2.6,0,5.2c0.3,1-0.2,2.1-1.1,2.7L30.3,35l3.2,5.5l4.1-2.4c1-0.6,2.3-0.4,3,0.5
		c0.5,0.6,2.3,2.2,4.1,2.4c1.2,0.2,2.1,1.2,2.1,2.4v4.9H46.9z"/>
</g>
</svg>
