<?xml version="1.0" encoding="utf-8"?>
<!-- Generator: Adobe Illustrator 19.2.1, SVG Export Plug-In . SVG Version: 6.00 Build 0)  -->
<svg version="1.1" id="Capa_1" xmlns="http://www.w3.org/2000/svg" xmlns:xlink="http://www.w3.org/1999/xlink" x="0px" y="0px"
	 viewBox="0 0 20 20" style="enable-background:new 0 0 20 20;" xml:space="preserve">
<style type="text/css">
	.st0{fill:#00AEC7;}
</style>
<path class="st0" d="M19.9,10c0,0,0-0.1,0-0.1l0-0.1c0-0.1-0.1-0.2-0.1-0.4L19.5,9l0,0l-6.6-5.1c-0.6-0.5-1.5-0.4-2,0.3
	c-0.2,0.3-0.3,0.7-0.3,1.1s0.2,0.7,0.6,1l3.1,2.4H1.6c-0.8,0-1.4,0.6-1.4,1.4s0.6,1.4,1.4,1.4h12.6l-3.1,2.4c-0.6,0.5-0.7,1.4-0.3,2
	c0.3,0.4,0.7,0.6,1.1,0.6c0.3,0,0.6-0.1,0.9-0.3l6.8-5.4c0,0,0,0,0,0c0,0,0.1-0.3,0.1-0.3l0-0.1l0-0.1L19.9,10z"/>
</svg>
