<?xml version="1.0" encoding="utf-8"?>
<!-- Generator: Adobe Illustrator 19.2.1, SVG Export Plug-In . SVG Version: 6.00 Build 0)  -->
<svg version="1.1" id="Capa_1" xmlns="http://www.w3.org/2000/svg" xmlns:xlink="http://www.w3.org/1999/xlink" x="0px" y="0px"
	 viewBox="0 0 100 100" style="enable-background:new 0 0 100 100;" xml:space="preserve">
<style type="text/css">
	.st0{fill:#FFFFFF;}
	.st1{opacity:0.6;}
	.st2{fill:none;stroke:#FFFFFF;stroke-width:5;stroke-linecap:round;stroke-linejoin:round;stroke-miterlimit:10;}
	.st3{opacity:0.6;fill:#FFFFFF;}
</style>
<g>
	<g>
		<path class="st0" d="M42.5,78.3h-38c-2.5,0-4.5-2-4.5-4.5V46.2c0-2.5,2-4.5,4.5-4.5h38c2.5,0,4.5,2,4.5,4.5v27.5
			C47.1,76.2,45,78.3,42.5,78.3z M5,73.2h37V46.7H5V73.2z"/>
	</g>
	<g>
		<path class="st0" d="M27.7,83.4h-8.4c-0.8,0-1.5-0.7-1.5-1.5V64c0-3.1,2.5-5.5,5.5-5.5h0.3c3.1,0,5.5,2.5,5.5,5.5v17.9
			C29.2,82.7,28.6,83.4,27.7,83.4z M20.8,80.3h5.4V64c0-1.4-1.1-2.5-2.5-2.5h-0.3c-1.4,0-2.5,1.1-2.5,2.5V80.3z"/>
	</g>
	<g>
		<path class="st0" d="M33.3,91.5H13.7c-1.4,0-2.5-1.1-2.5-2.5v-2.1c0-4.2,3.4-7.6,7.6-7.6h9.5c4.2,0,7.6,3.4,7.6,7.6V89
			C35.9,90.4,34.7,91.5,33.3,91.5z M16.3,86.5h14.5c-0.2-1.2-1.2-2.1-2.5-2.1h-9.5C17.5,84.4,16.5,85.3,16.3,86.5z"/>
	</g>
	<g class="st1">
		<path class="st0" d="M19.3,37.8C8.9,37.8,0.5,29.4,0.5,19C0.5,8.6,8.9,0.1,19.3,0.1c10.4,0,18.9,8.5,18.9,18.9
			C38.2,29.4,29.7,37.8,19.3,37.8z M19.3,5.2C11.7,5.2,5.5,11.4,5.5,19s6.2,13.8,13.8,13.8S33.1,26.6,33.1,19S26.9,5.2,19.3,5.2z"/>
	</g>
	<g class="st1">
		<path class="st0" d="M23.5,25.4c-0.4,0-0.9-0.2-1.2-0.5L18.2,20c-0.2-0.3-0.4-0.6-0.4-1V8.1c0-0.8,0.7-1.5,1.5-1.5
			c0.8,0,1.5,0.7,1.5,1.5v10.3l3.8,4.5c0.5,0.6,0.5,1.6-0.2,2.1C24.2,25.3,23.9,25.4,23.5,25.4z"/>
	</g>
	<g>
		<path class="st0" d="M63.1,62.5c-7.7,0-14-6.3-14-14V40c0-7.7,6.3-14,14-14s14,6.3,14,14v8.5C77.1,56.2,70.8,62.5,63.1,62.5z
			 M63.1,31c-4.9,0-9,4-9,9v8.5c0,4.9,4,9,9,9s9-4,9-9V40C72,35.1,68,31,63.1,31z"/>
	</g>
	<g>
		<path class="st0" d="M74.5,44.1C74.5,44.1,74.5,44.1,74.5,44.1c-3.6,0-6.1-2-7.4-3.4c-1.1,1-2.9,2.3-5.3,2.9
			c-4.1,1.1-10.2,0.1-10.5,0c-0.8-0.1-1.4-0.9-1.2-1.7c0.1-0.8,0.9-1.4,1.7-1.2c0.1,0,5.8,0.9,9.2,0c3.2-0.8,5-3.2,5-3.2
			c0.3-0.4,0.8-0.6,1.3-0.6c0.5,0,1,0.3,1.2,0.7c0.1,0.1,2.2,3.5,6,3.5c0.8,0,1.5,0.7,1.5,1.5C76,43.4,75.4,44.1,74.5,44.1z"/>
	</g>
	<g>
		<rect x="38.5" y="75.7" class="st0" width="5" height="13.3"/>
	</g>
	<g>
		<path class="st0" d="M63.1,74.2C63,74.2,63,74.2,63.1,74.2c-0.7,0-1.2-0.4-1.4-1L57,60.4c-2.4,0.2-8.1,1-11.6,3.3l-1.7-2.5
			c5.3-3.5,13.9-3.9,14.2-3.9c0.7,0,1.3,0.4,1.5,1l3.7,10.3l3.9-9.2c0.2-0.6,0.8-0.9,1.4-0.9c10.4,0,14.7,3.2,16.4,5.6l-4.4,0
			c-1.9-1.3-5.3-2.5-11.1-2.6l-5,11.8C64.2,73.8,63.7,74.2,63.1,74.2z"/>
	</g>
	<g>
		<path class="st0" d="M95.5,99.9H4.5c-2.5,0-4.5-2-4.5-4.5V91c0-2.5,2-4.5,4.5-4.5h90.9c2.5,0,4.5,2,4.5,4.5v4.3
			C100,97.8,98,99.9,95.5,99.9z M5,94.8H95v-3.3H5V94.8z"/>
	</g>
	<g>
		<path class="st2" d="M72.5,88.9"/>
	</g>
	<path class="st3" d="M95.5,64.1H74.5c-2.5,0-4.5,2-4.5,4.5V89c0,1.4,1.1,2.5,2.5,2.5S75,90.4,75,89v-6.1H95v9.3
		c0,1.4,1.1,2.5,2.5,2.5c1.4,0,2.5-1.1,2.5-2.5V68.6C100,66.1,98,64.1,95.5,64.1z M95,69.1V73H75v-3.9H95z M75,79.9v-3.8H95v3.8H75z
		"/>
</g>
</svg>
