<?xml version="1.0" encoding="utf-8"?>
<!-- Generator: Adobe Illustrator 19.2.1, SVG Export Plug-In . SVG Version: 6.00 Build 0)  -->
<svg version="1.1" id="Capa_1" xmlns="http://www.w3.org/2000/svg" xmlns:xlink="http://www.w3.org/1999/xlink" x="0px" y="0px"
	 viewBox="0 0 100 100" style="enable-background:new 0 0 100 100;" xml:space="preserve">
<style type="text/css">
	.st0{fill:#FFFFFF;}
	.st1{opacity:0.6;}
	.st2{opacity:0.6;fill:#FFFFFF;}
</style>
<g>
	<g>
		<path class="st0" d="M95.7,39H4.3C1.9,39,0,37,0,34.6v-4c0-2.4,1.9-4.3,4.3-4.3h91.3c2.4,0,4.3,1.9,4.3,4.3v4
			C100,37,98.1,39,95.7,39z M95.7,34.6v2.2V34.6L95.7,34.6L95.7,34.6z M4.3,30.6v4h91.3l0-4H4.3z"/>
	</g>
	<g>
		<path class="st0" d="M95.7,99.9H4.3C1.9,99.9,0,98,0,95.6v-4c0-2.4,1.9-4.3,4.3-4.3h91.3c2.4,0,4.3,1.9,4.3,4.3v4
			C100,98,98.1,99.9,95.7,99.9z M95.7,95.6v2.2V95.6L95.7,95.6L95.7,95.6z M4.3,91.6v4h91.3l0-4H4.3z"/>
	</g>
	<g>
		<path class="st0" d="M95.7,30.6H4.3c-1,0-1.8-0.7-2.1-1.6c-0.3-1,0.2-2,1-2.4L48.9,0.4c0.7-0.4,1.5-0.4,2.2,0l45.7,26.2
			c0.9,0.5,1.3,1.5,1,2.4C97.5,30,96.6,30.6,95.7,30.6z M12.5,26.3h75L50,4.8L12.5,26.3z"/>
	</g>
	<g class="st1">
		<path class="st0" d="M50,25.2c-4.3,0-7.9-3.5-7.9-7.9s3.5-7.9,7.9-7.9s7.9,3.5,7.9,7.9S54.3,25.2,50,25.2z M50,12.7
			c-2.5,0-4.6,2.1-4.6,4.6s2.1,4.6,4.6,4.6s4.6-2.1,4.6-4.6S52.5,12.7,50,12.7z"/>
	</g>
	<g class="st1">
		<path class="st0" d="M50,81.6c-9.7,0-17.5-7.9-17.5-17.5c0-9.7,7.9-17.5,17.5-17.5s17.5,7.9,17.5,17.5
			C67.5,73.8,59.7,81.6,50,81.6z M50,50.9c-7.3,0-13.2,5.9-13.2,13.2S42.7,77.3,50,77.3c7.3,0,13.2-5.9,13.2-13.2S57.3,50.9,50,50.9
			z"/>
	</g>
	<path class="st2" d="M52.5,63c-0.3-0.1-0.8-0.3-1.3-0.5v-4.1c0.3,0.1,0.6,0.3,0.8,0.5c0.4,0.5,0.6,1.1,0.6,1.8V61
		c0,0.2,0.1,0.3,0.4,0.3h2.7c0.3,0,0.4-0.1,0.4-0.4V60c0-1.3-0.4-2.4-1.3-3.3c-0.8-0.9-2-1.4-3.5-1.5c-0.1,0-0.2-0.1-0.2-0.2l0-1.3
		c0-0.3-0.1-0.4-0.4-0.4h-1.4c-0.3,0-0.4,0.1-0.4,0.4L49,55c0,0.1-0.1,0.1-0.2,0.2c-1.5,0.2-2.6,0.8-3.4,1.7c-0.8,0.9-1.2,2-1.2,3.3
		c0,1.8,0.9,3.3,2.7,4.4c0.5,0.3,1.2,0.7,2.1,1v4.4c-0.2-0.1-0.4-0.2-0.5-0.4c-0.4-0.5-0.7-1-0.7-1.7v-0.4c0-0.2-0.1-0.3-0.4-0.3
		h-2.6c-0.3,0-0.4,0.1-0.4,0.4v1.1c0,1.2,0.4,2.3,1.2,3.1c0.8,0.8,1.9,1.3,3.4,1.5c0.1,0,0.2,0.1,0.2,0.2l-0.1,1.2
		c0,0.3,0.1,0.4,0.4,0.4h1.5c0.3,0,0.4-0.1,0.4-0.4l0-1.1c0-0.1,0.1-0.2,0.2-0.2c1.5-0.2,2.7-0.8,3.5-1.7c0.8-0.9,1.3-2.1,1.3-3.5
		C56.2,65.8,55,64.1,52.5,63z M48.2,61.1c-0.3-0.3-0.4-0.6-0.4-1c0-0.6,0.2-1,0.6-1.4c0.2-0.1,0.4-0.2,0.6-0.3v3.3
		C48.7,61.5,48.4,61.3,48.2,61.1z M52.1,69.6c-0.2,0.2-0.5,0.4-0.9,0.5v-3.6c0.2,0.1,0.4,0.2,0.6,0.3c0.6,0.3,0.8,0.8,0.8,1.3
		C52.6,68.8,52.4,69.2,52.1,69.6z"/>
	<g>
		<path class="st0" d="M25.6,83.8H13.3c-0.9,0-1.6-0.7-1.6-1.6V44.7c0-0.9,0.7-1.6,1.6-1.6h12.3c0.9,0,1.6,0.7,1.6,1.6v37.5
			C27.2,83.1,26.5,83.8,25.6,83.8z M14.9,80.6h9.1V46.4h-9.1V80.6z"/>
	</g>
	<g>
		<path class="st0" d="M25.6,46.4H13.3c-0.5,0-1-0.2-1.3-0.6l-6.2-8c-0.4-0.5-0.4-1.2-0.2-1.7c0.3-0.6,0.8-0.9,1.5-0.9h24.1
			c0.6,0,1.2,0.3,1.4,0.9c0.3,0.5,0.2,1.2-0.1,1.7l-5.6,8C26.6,46.1,26.1,46.4,25.6,46.4z M14.1,43.1h10.7l3.3-4.7H10.4L14.1,43.1z"
			/>
	</g>
	<g>
		<path class="st0" d="M31.2,91h-23c-0.6,0-1.2-0.3-1.4-0.9c-0.3-0.5-0.2-1.2,0.1-1.7l5.1-7.2c0.3-0.4,0.8-0.7,1.3-0.7h12.3
			c0.5,0,1,0.2,1.3,0.6l5.6,7.2c0.4,0.5,0.5,1.2,0.2,1.7C32.4,90.7,31.8,91,31.2,91z M11.3,87.8h16.5l-3.1-3.9H14.1L11.3,87.8z"/>
	</g>
	<g>
		<path class="st0" d="M86.8,83.8H74.5c-0.9,0-1.6-0.7-1.6-1.6V44.7c0-0.9,0.7-1.6,1.6-1.6h12.3c0.9,0,1.6,0.7,1.6,1.6v37.5
			C88.4,83.1,87.7,83.8,86.8,83.8z M76.1,80.6h9.1V46.4h-9.1V80.6z"/>
	</g>
	<g>
		<path class="st0" d="M86.8,46.4H74.5c-0.5,0-1-0.2-1.3-0.6l-6.2-8c-0.4-0.5-0.4-1.2-0.2-1.7c0.3-0.6,0.8-0.9,1.5-0.9h24.1
			c0.6,0,1.2,0.3,1.4,0.9c0.3,0.5,0.2,1.2-0.1,1.7l-5.6,8C87.8,46.1,87.3,46.4,86.8,46.4z M75.3,43.1h10.7l3.3-4.7H71.6L75.3,43.1z"
			/>
	</g>
	<g>
		<path class="st0" d="M92.4,91h-23c-0.6,0-1.2-0.3-1.4-0.9c-0.3-0.5-0.2-1.2,0.1-1.7l5.1-7.2c0.3-0.4,0.8-0.7,1.3-0.7h12.3
			c0.5,0,1,0.2,1.3,0.6l5.6,7.2c0.4,0.5,0.5,1.2,0.2,1.7C93.6,90.7,93,91,92.4,91z M72.5,87.8H89L86,83.8H75.3L72.5,87.8z"/>
	</g>
</g>
</svg>
