<?xml version="1.0" encoding="utf-8"?>
<!-- Generator: Adobe Illustrator 19.2.1, SVG Export Plug-In . SVG Version: 6.00 Build 0)  -->
<svg version="1.1" id="Capa_1" xmlns="http://www.w3.org/2000/svg" xmlns:xlink="http://www.w3.org/1999/xlink" x="0px" y="0px"
	 viewBox="0 0 100 100" style="enable-background:new 0 0 100 100;" xml:space="preserve">
<style type="text/css">
	.st0{opacity:0.6;}
	.st1{fill:#FFFFFF;}
</style>
<g class="st0">
	<path class="st1" d="M50.1,66.5l-0.9-0.6c-0.1-0.1-8.7-6.1-16.6-11.5c-8.5-5.8-9.4-13.1-9.5-13.4l0-0.2V12.2l27-11.8l25.9,12v28.1
		c0,6.4-5.1,11.1-5.3,11.3l-0.1,0.1L50.1,66.5z M26.2,40.7c0.1,0.7,1.2,6.4,8.2,11.2c6.4,4.4,13.4,9.2,15.7,10.9l18.6-13.3
		c0.5-0.5,4.3-4.2,4.3-9V14.3L50.1,3.6L26.2,14.1V40.7z"/>
</g>
<g class="st0">
	<path class="st1" d="M50,57.7l-0.9-0.6c0,0-6.2-4.3-11.9-8.3c-6.2-4.3-7-9.7-7-9.9l0-0.2V16.9L50,8.2L69,17v21.5
		c0,4.8-3.8,8.3-4,8.4L64.9,47L50,57.7z M33.2,38.6c0.1,0.6,0.9,4.5,5.7,7.7c4.5,3.1,9.2,6.3,11.1,7.7l13.1-9.4
		c0.4-0.4,2.9-2.9,2.9-6.1V18.9L50,11.4l-16.8,7.4V38.6z"/>
</g>
<g class="st0">
	<path class="st1" d="M46.8,42.5c-0.3,0-0.6-0.1-0.9-0.3l-6.7-5c-0.7-0.5-0.8-1.4-0.3-2.1c0.5-0.7,1.4-0.8,2.1-0.3l5.4,4.1
		l11.8-17.2c0.5-0.7,1.4-0.9,2.1-0.4c0.7,0.5,0.9,1.4,0.4,2.1L48.1,41.8c-0.2,0.3-0.6,0.6-1,0.6C47,42.5,46.9,42.5,46.8,42.5z"/>
</g>
<g>
	<path class="st1" d="M99.2,46.5c-0.8-1.9-2.7-2.5-3.7-2.8c-0.1,0-0.2-0.1-0.3-0.1c-1-0.4-2.7-0.5-4.4,0.4c-1.3,0.7-3.1,2.3-3.8,5.9
		c-0.5,2.2-1.4,3.7-2.2,4.6c-1.3-0.8-3.5-1.6-6.2-0.5c-1.8,0.7-3,1.9-4.2,3c-1.2,1.2-2.4,2.3-4.5,2.9c-5,1.5-6.4,3.1-9.6,6.6
		l-0.1,0.1c-2.7,3-2.9,8.2-2.8,11.4C55.5,78.4,54,80,54,82v12.7c0,2.2,1.8,4,4,4h18c2.2,0,4-1.8,4-4V82c0-0.7-0.2-1.4-0.5-2
		c1.5-1.4,3.3-3.3,5-5.1c1.7-1.8,4.6-4.8,5.1-5.1c1.4-0.7,2.4-2.7,5-8.5c1-2.2,2.2-4.8,3.4-7.3C99.6,50.7,100,48.3,99.2,46.5z
		 M61.4,78c-0.1-3.2,0.3-7,1.8-8.7l0.1-0.1c3.1-3.4,3.9-4.3,7.8-5.5c3-0.9,4.6-2.5,6.1-3.9c1-0.9,1.8-1.7,2.9-2.2
		c0.9-0.4,1.7-0.2,2.2,0c-2.4,4-8,9-8.1,9.1c-0.4,0.4-0.6,0.8-0.7,1.4c0,0.5,0.1,1,0.5,1.4c0.7,0.8,2,0.9,2.8,0.2
		c0.3-0.3,7.2-6.5,9.6-11.3c1.1-0.9,3.6-3.3,4.5-7.7c0.3-1.6,1-2.7,1.8-3.2c0.5-0.3,0.9-0.2,1-0.2c0.2,0.1,0.4,0.1,0.6,0.2
		c0.5,0.2,1,0.3,1.1,0.5c0,0.1,0.4,1.1-1.2,4.2c-1.3,2.6-2.4,5.1-3.5,7.4c-1.1,2.5-2.7,6-3.3,6.6c-0.9,0.5-2.4,2.1-6,5.8
		c-2,2.1-4.3,4.5-5.8,5.9H61.4z M76,82v12.7H58V82H76z"/>
	<circle class="st1" cx="63.7" cy="89.3" r="2.8"/>
	<path class="st1" d="M42.6,78.1c0.1-3.2-0.2-8.5-2.8-11.4l-0.1-0.1c-3.2-3.5-4.7-5.1-9.6-6.6c-2.1-0.6-3.2-1.7-4.5-2.9
		c-1.2-1.1-2.3-2.2-4.2-3c-2.7-1.1-5-0.3-6.2,0.5c-0.8-0.9-1.8-2.4-2.2-4.6c-0.7-3.5-2.5-5.1-3.8-5.9c-1.7-0.9-3.3-0.8-4.4-0.4
		c-0.1,0-0.2,0.1-0.4,0.1c-0.9,0.3-2.8,0.8-3.6,2.8C0,48.3,0.4,50.7,2,54.1c1.2,2.5,2.4,5,3.4,7.3c2.6,5.7,3.6,7.8,5,8.5
		c0.5,0.3,3.4,3.3,5.1,5.1c1.7,1.8,3.5,3.7,5,5.1c-0.4,0.6-0.5,1.3-0.5,2v12.7c0,2.2,1.8,4,4,4h18c2.2,0,4-1.8,4-4V82
		C46,80,44.5,78.4,42.6,78.1z M42,82v12.7H24V82H42z M25.9,69.6c0.4-0.4,0.5-0.9,0.5-1.4c0-0.5-0.3-1-0.7-1.4
		c-0.1-0.1-5.7-5.1-8.1-9.1c0.5-0.2,1.3-0.4,2.2,0c1.1,0.5,1.9,1.3,2.9,2.2c1.5,1.4,3.1,3,6.1,3.9c3.9,1.2,4.7,2.1,7.8,5.5l0.1,0.1
		c1.5,1.6,1.9,5.5,1.8,8.7H24.2c-1.5-1.4-3.8-3.7-5.8-5.9c-3.6-3.8-5.1-5.3-6-5.8c-0.6-0.7-2.2-4.1-3.3-6.6c-1-2.3-2.2-4.8-3.5-7.4
		c-1.5-3.1-1.2-4.1-1.2-4.2c0.1-0.2,0.6-0.4,1.1-0.5c0.2-0.1,0.5-0.1,0.6-0.2c0.1,0,0.6-0.1,1,0.2C8.1,48,8.7,49.1,9,50.7
		c0.9,4.4,3.4,6.8,4.5,7.7c2.3,4.8,9.3,11.1,9.5,11.3C23.9,70.5,25.2,70.4,25.9,69.6z"/>
	<circle class="st1" cx="36.3" cy="89.3" r="2.8"/>
</g>
</svg>
