<?xml version="1.0" encoding="utf-8"?>
<!-- Generator: Adobe Illustrator 19.2.1, SVG Export Plug-In . SVG Version: 6.00 Build 0)  -->
<svg version="1.1" id="Capa_1" xmlns="http://www.w3.org/2000/svg" xmlns:xlink="http://www.w3.org/1999/xlink" x="0px" y="0px"
	 viewBox="0 0 100 100" style="enable-background:new 0 0 100 100;" xml:space="preserve">
<style type="text/css">
	.st0{fill:#FFFFFF;}
	.st1{opacity:0.6;}
</style>
<g>
	<g>
		<path class="st0" d="M50.5,100c-0.6,0-1.1-0.2-1.6-0.5c-0.1-0.1-10.5-8.2-21.5-13.3c-0.1,0-0.2-0.1-0.3-0.2
			C12.2,76.4,10,56.1,9.9,55.2c0-0.1,0-0.2,0-0.3V13.8c0-0.7,0.3-1.4,0.8-1.9c0.5-0.5,1.2-0.7,2-0.7c0.2,0,16,1.2,36.5-10.8
			C50-0.1,51-0.1,51.9,0.4C52,0.5,69.6,11.7,87.5,11.2c0.7,0,1.4,0.2,1.9,0.7c0.5,0.5,0.8,1.1,0.8,1.8v42.3
			c0,0.8,0.1,20.6-15.7,29.3C60.2,93.2,52.1,99.4,52,99.5C51.6,99.8,51,100,50.5,100z M29.7,81.6c9,4.3,17.4,10.2,20.7,12.7
			C53.5,92,60.9,86.9,72,80.8c13-7.2,13-24.5,13-24.7V16.4C69.3,16,54.8,8.2,50.4,5.6C34,14.9,20.6,16.3,15,16.4v38.4
			C15.2,56.4,17.6,73.6,29.7,81.6z"/>
	</g>
	<g class="st1">
		<g>
			<path class="st0" d="M46,67c-1.6,0-3.2-0.6-4.3-1.8L30.6,54.4c-1.2-1.2-1.8-2.7-1.9-4.3c0-1.6,0.6-3.2,1.8-4.4
				c2.4-2.4,6.3-2.5,8.7-0.1l6.7,6.6l17.2-17.3c1.2-1.2,2.7-1.8,4.4-1.8c0,0,0,0,0,0c1.6,0,3.2,0.6,4.3,1.8c1.2,1.2,1.8,2.7,1.8,4.4
				c0,1.6-0.6,3.2-1.8,4.4L50.4,65.2C49.2,66.4,47.7,67,46,67z M34.9,46.9c-0.8,0-1.6,0.3-2.2,0.9c-0.6,0.6-0.9,1.4-0.9,2.2
				c0,0.8,0.3,1.6,0.9,2.2l11.1,10.9c1.2,1.1,3.2,1.1,4.3,0l21.5-21.7c1.2-1.2,1.2-3.2,0-4.4c-0.6-0.6-1.4-0.9-2.2-0.9
				c-0.8,0-1.6,0.3-2.2,0.9L46,56.5L37,47.8C36.4,47.2,35.7,46.9,34.9,46.9z"/>
		</g>
	</g>
</g>
</svg>
