<?xml version="1.0" encoding="utf-8"?>
<!-- Generator: Adobe Illustrator 19.2.1, SVG Export Plug-In . SVG Version: 6.00 Build 0)  -->
<svg version="1.1" id="Capa_1" xmlns="http://www.w3.org/2000/svg" xmlns:xlink="http://www.w3.org/1999/xlink" x="0px" y="0px"
	 viewBox="0 0 100 100" style="enable-background:new 0 0 100 100;" xml:space="preserve">
<style type="text/css">
	.st0{fill:#FFFFFF;}
	.st1{opacity:0.6;}
</style>
<g>
	<path class="st0" d="M77.9,65.3c-1.2,0-2.2,0.2-3.1,0.5c-0.7-1.6-2.6-4-6.5-4.1c-2.1,0-3.8,0.6-5,1.5c-1.3-1.3-3.1-2.4-5.4-2.4
		c-1,0-2,0.2-2.8,0.5v-18c0-0.7,0.1-3.8-1.9-5.9c-0.9-0.9-2.4-2-5-2c-3,0-4.8,1.2-5.8,2.3c-2.1,2.2-2.1,5.2-2,5.9v34l-1.3-2
		c0,0-0.1-0.1-0.1-0.1c-1.6-2.2-5.8-5.5-10.4-2.6c-4.5,2.8-4.1,7.8-3.2,10.1c0,0.1,0.1,0.2,0.1,0.2L33,98.7c0.4,0.8,1.3,1.3,2.2,1.3
		c0.4,0,0.7-0.1,1.1-0.2c1.2-0.6,1.7-2,1.1-3.2l-7.6-15.4c-0.2-0.6-0.8-3,1.3-4.3c1.9-1.2,3.6,0.8,4,1.3l5.7,9
		c0.6,0.9,1.7,1.3,2.7,1c1-0.3,1.7-1.2,1.7-2.3V43.5c0-0.1,0-0.1,0-0.2c0,0,0-1.5,0.8-2.4c0.2-0.2,0.7-0.8,2.3-0.8
		c0.9,0,1.3,0.3,1.5,0.5c0.6,0.7,0.7,2,0.7,2.4c0,0.1,0,0.1,0,0.2v23.1v13.6c0,1.3,1.1,2.4,2.4,2.4s2.4-1.1,2.4-2.4V67
		c0.4-0.5,1.2-1.4,2.8-1.4c1.6,0,2.6,1.6,3,2.3v12.6c0,1.3,1.1,2.4,2.4,2.4c1.3,0,2.4-1.1,2.4-2.4V67.4v0v0c0.4-0.4,1.2-0.9,2.6-0.9
		c1.3,0,1.8,0.6,2.1,0.9v3.2v9.4c0,1.3,1.1,2.4,2.4,2.4c1.3,0,2.4-1.1,2.4-2.4v-8.6c0.4-0.5,1.3-1.2,2.9-1.2c2,0,2.7,2.3,2.8,2.7
		v22.9c0,1.3,1.1,2.4,2.4,2.4c1.3,0,2.4-1.1,2.4-2.4V72.6C85.5,70.5,83.2,65.3,77.9,65.3z"/>
	<g class="st1">
		<path class="st0" d="M27,48.8c-1.3,0-2.5,0.3-3.6,0.9c-3.3-4.9-5-10.6-5-16.5C18.4,17.7,30.5,4.8,46,3.8c1.1-0.1,1.9-1,1.8-2
			c-0.1-1.1-1-1.9-2-1.8C28.3,1.1,14.5,15.7,14.5,33.2c0,6.9,2.1,13.4,6,19c0,0,0,0,0,0c-0.9,1.3-1.4,2.8-1.4,4.4
			c0,4.3,3.5,7.9,7.9,7.9s7.9-3.5,7.9-7.9S31.4,48.8,27,48.8z M27,60.8c-2.2,0-4-1.8-4-4s1.8-4,4-4s4,1.8,4,4S29.3,60.8,27,60.8z"/>
		<path class="st0" d="M52.3,40.8c2.6-1.6,4.3-4.4,4.3-7.5c0-4.8-3.9-8.7-8.7-8.7c-4.8,0-8.7,3.9-8.7,8.7c0,3,1.5,5.8,4.1,7.4
			c0.9,0.6,2.1,0.3,2.6-0.6c0.6-0.9,0.3-2.1-0.6-2.6c-1.4-0.9-2.3-2.4-2.3-4.1c0-2.7,2.2-4.9,4.9-4.9c2.7,0,4.9,2.2,4.9,4.9
			c0,1.7-0.9,3.3-2.4,4.2c-0.9,0.5-1.2,1.7-0.7,2.6c0.4,0.6,1,0.9,1.7,0.9C51.6,41,52,40.9,52.3,40.8z"/>
		<path class="st0" d="M53,52.4c8.7-2.3,14.7-10.2,14.7-19.2c0-10.9-8.9-19.9-19.9-19.9C36.9,13.4,28,22.3,28,33.2
			c0,8.8,5.6,16.4,14,19c1,0.3,2.1-0.3,2.4-1.3c0.3-1-0.3-2.1-1.3-2.4c-6.8-2.1-11.3-8.2-11.3-15.3c0-8.8,7.2-16,16-16
			c8.8,0,16,7.2,16,16c0,7.3-4.9,13.6-11.9,15.5c-1,0.3-1.6,1.3-1.4,2.4c0.2,0.9,1,1.4,1.9,1.4C52.6,52.5,52.8,52.5,53,52.4z"/>
		<path class="st0" d="M75.2,14.2c-0.1-0.1-0.2-0.3-0.4-0.4c0.8-1.2,1.3-2.7,1.3-4.2c0-4.2-3.4-7.6-7.6-7.6s-7.6,3.4-7.6,7.6
			s3.4,7.6,7.6,7.6c1.3,0,2.5-0.3,3.5-0.9c0,0,0,0,0,0c3.5,5,5.3,10.8,5.3,16.8c0,14.1-10,26.3-23.9,28.9c-1,0.2-1.7,1.2-1.5,2.2
			c0.2,0.9,1,1.6,1.9,1.6c0.1,0,0.2,0,0.4,0c15.6-3,27-16.8,27-32.7C81.1,26.4,79.1,19.8,75.2,14.2z M68.5,13.4
			c-2.1,0-3.8-1.7-3.8-3.8s1.7-3.8,3.8-3.8c2.1,0,3.8,1.7,3.8,3.8S70.6,13.4,68.5,13.4z"/>
	</g>
</g>
</svg>
