<?xml version="1.0" encoding="utf-8"?>
<!-- Generator: Adobe Illustrator 19.2.1, SVG Export Plug-In . SVG Version: 6.00 Build 0)  -->
<svg version="1.1" id="Capa_1" xmlns="http://www.w3.org/2000/svg" xmlns:xlink="http://www.w3.org/1999/xlink" x="0px" y="0px"
	 viewBox="0 0 20 20" style="enable-background:new 0 0 20 20;" xml:space="preserve">
<style type="text/css">
	.st0{fill:#0033A0;}
</style>
<g>
	<g>
		<path class="st0" d="M17.8,17.6H2.2c-1.2,0-2.2-1-2.2-2.2V4.7c0-1.2,1-2.2,2.2-2.2h15.5c1.2,0,2.2,1,2.2,2.2v10.7
			C20,16.6,19,17.6,17.8,17.6z M2.2,3.9c-0.4,0-0.7,0.3-0.7,0.7v10.7c0,0.4,0.3,0.7,0.7,0.7h15.5c0.4,0,0.7-0.3,0.7-0.7V4.7
			c0-0.4-0.3-0.7-0.7-0.7H2.2z"/>
	</g>
	<g>
		<path class="st0" d="M10,13.8c-0.2,0-0.3,0-0.4-0.1L0.3,6.8C0,6.5-0.1,6.1,0.1,5.7c0.2-0.3,0.7-0.4,1-0.2l8.8,6.6l8.8-6.6
			c0.3-0.2,0.8-0.2,1,0.2c0.2,0.3,0.2,0.8-0.2,1l-9.3,6.9C10.3,13.8,10.2,13.8,10,13.8z"/>
	</g>
</g>
</svg>
