<?xml version="1.0" encoding="utf-8"?>
<!-- Generator: Adobe Illustrator 19.2.1, SVG Export Plug-In . SVG Version: 6.00 Build 0)  -->
<svg version="1.1" id="Capa_1" focusable="false" xmlns="http://www.w3.org/2000/svg" xmlns:xlink="http://www.w3.org/1999/xlink"
	 x="0px" y="0px" viewBox="0 0 50 50" style="enable-background:new 0 0 50 50;" xml:space="preserve">
<style type="text/css">
	.st0{fill:#D0D1EC;}
	.st1{fill:#0033A1;}
</style>
<g>
	<path class="st0" d="M25,3C12.9,3,3.1,12.8,3.1,25S12.9,47,25,47s21.9-9.8,21.9-21.9C46.9,12.8,37.1,3,25,3z"/>
	<path class="st1" d="M25,1.3C11.9,1.3,1.3,11.9,1.3,25S11.9,48.7,25,48.7S48.7,38.2,48.7,25C48.7,11.9,38.1,1.3,25,1.3z M25,44.2
		C14.4,44.2,5.9,35.6,5.9,25S14.5,5.9,25,5.9S44.1,14.5,44.1,25S35.6,44.2,25,44.2z M25,11.8c2.2,0,4,1.8,4,4s-1.8,4-4,4s-4-1.8-4-4
		S22.8,11.8,25,11.8z M30.4,36.1c0,0.6-0.5,1.2-1.2,1.2h-8.4c-0.6,0-1.2-0.5-1.2-1.2v-2.3c0-0.6,0.5-1.2,1.2-1.2H22v-6.1h-1.2
		c-0.6,0-1.2-0.5-1.2-1.2V23c0-0.6,0.5-1.2,1.2-1.2h6.1c0.6,0,1.2,0.5,1.2,1.2v9.6h1.2c0.6,0,1.2,0.5,1.2,1.2L30.4,36.1L30.4,36.1z"
		/>
</g>
</svg>
