<?xml version="1.0" encoding="utf-8"?>
<!-- Generator: Adobe Illustrator 19.2.1, SVG Export Plug-In . SVG Version: 6.00 Build 0)  -->
<svg version="1.1" id="Capa_1" xmlns="http://www.w3.org/2000/svg" xmlns:xlink="http://www.w3.org/1999/xlink" x="0px" y="0px"
	 viewBox="0 0 20 20" style="enable-background:new 0 0 20 20;" xml:space="preserve">
<style type="text/css">
	.st0{fill:#0033A0;}
</style>
<g>
	<path class="st0" d="M16.2,19.7c-6.2,0-10.2-3.8-12-6.3C1,9.8-0.5,5,0.5,2.2c0.1-0.3,0.3-0.4,0.4-0.5C1.6,1.4,5,0,6.3,0.3
		c0.3,0,0.5,0.3,0.6,0.4l2.3,5C9.4,6,9.4,6.3,9.1,6.6L7.2,8.5c1.5,2.4,3.4,3.8,4.2,4.4l1.9-2c0.3-0.3,0.6-0.3,0.9-0.3l5.2,2.4
		c0.3,0.1,0.4,0.3,0.4,0.5c0.3,1.5-0.4,4.7-1.5,5.8c-0.1,0.1-0.3,0.3-0.5,0.3C17.3,19.7,16.7,19.7,16.2,19.7z M1.8,2.9
		C1.3,5,2.4,9,5.2,12.5c1.9,2.4,5.9,6.2,12,5.5c0.6-0.8,1.1-2.8,1-3.9l-4.3-2L12,14.3c-0.3,0.3-0.6,0.3-0.9,0.3
		c0-0.1-3.2-1.6-5.4-5.8C5.5,8.5,5.6,8.1,5.8,8l1.9-2L5.8,1.8C4.8,1.9,3.1,2.4,1.8,2.9z"/>
</g>
</svg>
