<?xml version="1.0" encoding="utf-8"?>
<!-- Generator: Adobe Illustrator 19.2.1, SVG Export Plug-In . SVG Version: 6.00 Build 0)  -->
<svg version="1.1" id="Capa_1" xmlns="http://www.w3.org/2000/svg" xmlns:xlink="http://www.w3.org/1999/xlink" x="0px" y="0px"
	 viewBox="0 0 100 100" style="enable-background:new 0 0 100 100;" xml:space="preserve">
<style type="text/css">
	.st0{fill:#FFFFFF;}
	.st1{opacity:0.6;fill:#FFFFFF;}
</style>
<g>
	<path class="st0" d="M100,48.2l0-1.7L98.4,46c-8.4-2.7-9.7-8.7-9.8-9.8c0.1-0.5,0.1-1,0.1-1.6v-8.8c0-8.7-7-15.7-15.7-15.7h-0.8
		c-8.7,0-15.7,7-15.7,15.7v8.8c0,0.5,0,0.9,0.1,1.4l-0.1,0c0,0.2-0.4,2.9-5,7.6c0,0,4.3,0.4,5,2.2c0,0,1-1.7,1.9-3.7
		c1.4,2.6,3.5,4.7,6.1,6.2v2.3c-1.4,0.1-2.4,0-3.9-0.3c0,0,1.1,1.8,1.4,4.8c0,0,1.5,0,2.9-0.1c0.7,1.2,3.6,5.5,8.6,5.5
		c3.6,0,5.8-2.5,6.9-4.8l10.5,3.4c3.2,2.8,3.3,5.4,3.3,5.4v15.3h-5.6v-7.5h-4.5v7.5H70.3v4.5h28.4V64.5c0-0.4-0.1-3.7-3.3-7.2
		C99.8,53.1,100,48.4,100,48.2z M95.2,49.6c-0.4,1.3-1.4,3.2-3.6,5l-10.4-3.3l0-3.3c2.1-1.3,3.9-3.2,5.2-5.3
		C88.1,45.1,90.7,47.8,95.2,49.6z M72.2,14.7H73c6.2,0,11.2,5,11.2,11.2v2.4c-6.3,0.3-9.5-4.7-9.7-4.9L72.4,20l-1.8,3.6
		c-1.9,3.9-6.8,4.5-9.6,4.6v-2.2C61,19.8,66,14.7,72.2,14.7z M61,34.7v-2c3.1,0,8.3-0.7,11.7-4.4c2.1,2.1,5.7,4.6,10.8,4.6
		c0.2,0,0.4,0,0.6,0v1.9c0,6.2-5,11.2-11.2,11.2h-0.8C66,45.9,61,40.9,61,34.7z M73.6,56c-2.4,0-4-2.1-4.6-3v-3
		c1,0.2,2.1,0.3,3.2,0.3H73c1.3,0,2.6-0.2,3.8-0.5v2.8C76.6,53.4,75.8,56,73.6,56z"/>
	<path class="st1" d="M69.4,78.4c-0.1-0.1-1.9-3.6-5.4-6.3c-2-1.5-4.4-2.3-6.3-2.6c2.6-2.3,4.2-5.7,4.2-9.4v-3.8
		c0-7-5.7-12.7-12.7-12.7s-12.7,5.7-12.7,12.7V60c0,3.9,1.8,7.4,4.6,9.8c-1.7,0.5-4.1,1.3-6.1,2.5c-3.9,2.2-6.2,7-6.3,7.2L28.6,80
		v9.8h41V78.9L69.4,78.4z M52.7,74.5c0,0,0,0.4-0.3,0.7c-0.4,0.5-1.4,0.7-2.8,0.7c-1.4,0-2.4-0.3-2.9-0.7c-0.3-0.3-0.3-0.7-0.3-0.7
		l0-2.2c0.9,0.2,1.9,0.3,2.9,0.3c1.1,0,2.3-0.2,3.3-0.5l0,2.1L52.7,74.5z M49.4,68.2c-4.4,0-7.9-3.4-8.2-7.8
		c0.5-0.9,2.4-3.4,8.2-3.4c5.4,0,7.5,1.4,8.2,2v1C57.6,64.5,53.9,68.2,49.4,68.2z M49.4,48c3.6,0,6.7,2.4,7.8,5.7
		c-1.8-0.7-4.3-1.2-7.8-1.2c-3.5,0-6.1,0.8-8,1.8C42.3,50.7,45.5,48,49.4,48z M65.2,85.3H33.1v-4.2c0.6-1,2.2-3.6,4.3-4.9
		c1.4-0.8,3.2-1.5,4.6-1.9c0,0.7,0.1,2.4,1.4,3.9c1.3,1.5,3.4,2.3,6.2,2.3c2.8,0,4.9-0.8,6.2-2.3c1.4-1.6,1.4-3.4,1.3-4.1l0-0.2
		c1.3,0.3,2.9,0.8,4.2,1.8c2,1.6,3.4,3.5,3.9,4.4V85.3z"/>
	<path class="st0" d="M27.6,10.2h-2.5c-8.7,0-15.7,7-15.7,15.7v10c0,5.7,3.1,10.8,7.7,13.5V50c-2.4,0.8-7,2.3-9.6,4
		c-3.7,2.4-6.8,8.2-7.2,8.9L0,63.4v20.9h28.2v-4.5H15.4v-7.5h-4.5v7.5H4.5V64.5c1-1.8,3.3-5.4,5.4-6.8c1.7-1.1,4.8-2.3,7.3-3.1
		c0.6,2.7,3,6.8,9.1,6.8c5.5,0,7.9-3.4,8.7-6.1l0,0h1.8c0-2.7,1-4.2,1-4.2l-2.5-0.8v0l0-0.7c4.8-2.7,8-7.8,8-13.7v-10
		C43.3,17.3,36.2,10.2,27.6,10.2z M25.1,14.7h2.5c6.2,0,11.2,5,11.2,11.2v3c-8.6,0.6-16.2-4.1-16.2-4.1l-1.9-1.2l-1.2,1.9
		c-1.3,2-3.8,3-5.6,3.4v-3C13.8,19.8,18.9,14.7,25.1,14.7z M30.8,53.6c-0.1,0.9-0.7,3.4-4.5,3.4c-3.9,0-4.6-2.6-4.8-3.4v-2.3
		c1.1,0.3,2.3,0.4,3.5,0.4h2.5c1.1,0,2.2-0.1,3.2-0.3V53.6z M27.6,47.2h-2.5c-6.2,0-11.2-5-11.2-11.2v-2.5c2.2-0.4,5.6-1.5,8-3.9
		c3,1.6,9.5,4.3,16.9,3.9V36C38.8,42.2,33.7,47.2,27.6,47.2z"/>
</g>
</svg>
