<?xml version="1.0" encoding="utf-8"?>
<!-- Generator: Adobe Illustrator 19.2.1, SVG Export Plug-In . SVG Version: 6.00 Build 0)  -->
<svg version="1.1" id="Capa_1" xmlns="http://www.w3.org/2000/svg" xmlns:xlink="http://www.w3.org/1999/xlink" x="0px" y="0px"
	 viewBox="0 0 100 100" style="enable-background:new 0 0 100 100;" xml:space="preserve">
<style type="text/css">
	.st0{fill:#FFFFFF;}
	.st1{opacity:0.6;}
</style>
<g>
	<g>
		<path class="st0" d="M60.8,89.3H6.2V12.8c0-1.2,0.5-2.3,1.3-3.1c0.9-0.8,2-1.2,3.2-1.1l45.9,4c2.3,0.2,4.2,2.2,4.2,4.6V89.3z
			 M10.6,85h45.9V17.2c0-0.1-0.1-0.2-0.2-0.2l-45.7-4V85z"/>
	</g>
	<g class="st1">
		<path class="st0" d="M94.7,89.3H56.5V43.1l32.9,0c2.1,0.1,5.3,1.8,5.3,5.8V89.3z M60.8,85h29.5V48.9c0-0.4,0-1.3-1.2-1.5H60.8V85z
			"/>
	</g>
	<g>
		<path class="st0" d="M95.6,97H4.4C2,97,0,95,0,92.6v-3.3C0,86.9,2,85,4.4,85h91.3c2.4,0,4.4,2,4.4,4.4v3.3C100,95,98,97,95.6,97z
			 M95.6,92.6v2.2V92.6L95.6,92.6L95.6,92.6z M4.4,89.3v3.3h91.3l0-3.3H4.4z"/>
	</g>
	<g>
		<path class="st0" d="M56.5,16.4l-46.1-4V6.6c0-1,0.4-2,1.2-2.7s1.8-1,2.8-0.9l38.5,3.6c2.1,0.2,3.7,2,3.7,4V16.4z M13.6,9.3
			l39.5,3.4v-2.1c0-0.4-0.3-0.7-0.7-0.8L14,6.3c-0.1,0-0.2,0-0.3,0.1c-0.1,0.1-0.1,0.2-0.1,0.3V9.3z"/>
	</g>
	<g class="st1">
		<path class="st0" d="M71.9,64.3h-6.6c-1.5,0-2.7-1.2-2.7-2.7v-5.1c0-1.5,1.2-2.7,2.7-2.7h6.6c1.5,0,2.7,1.2,2.7,2.7v5.1
			C74.6,63.1,73.4,64.3,71.9,64.3z M65.9,61h5.5v-4h-5.5V61z"/>
	</g>
	<g class="st1">
		<path class="st0" d="M85.4,64.3h-6.6c-1.5,0-2.7-1.2-2.7-2.7v-5.1c0-1.5,1.2-2.7,2.7-2.7h6.6c1.5,0,2.7,1.2,2.7,2.7v5.1
			C88.2,63.1,86.9,64.3,85.4,64.3z M79.4,61h5.5v-4h-5.5V61z"/>
	</g>
	<g class="st1">
		<path class="st0" d="M71.9,77.9h-6.6c-1.5,0-2.7-1.2-2.7-2.7v-5.1c0-1.5,1.2-2.7,2.7-2.7h6.6c1.5,0,2.7,1.2,2.7,2.7v5.1
			C74.6,76.7,73.4,77.9,71.9,77.9z M65.9,74.6h5.5v-4h-5.5V74.6z"/>
	</g>
	<g class="st1">
		<path class="st0" d="M85.4,77.9h-6.6c-1.5,0-2.7-1.2-2.7-2.7v-5.1c0-1.5,1.2-2.7,2.7-2.7h6.6c1.5,0,2.7,1.2,2.7,2.7v5.1
			C88.2,76.7,86.9,77.9,85.4,77.9z M79.4,74.6h5.5v-4h-5.5V74.6z"/>
	</g>
	<g>
		<g>
			<path class="st0" d="M53.7,88.8H34.2V66.2c0-2.1,1.7-3.8,3.8-3.8h11.8c2.1,0,3.8,1.7,3.8,3.8V88.8z M37.5,85.5h12.9V66.2
				c0-0.3-0.3-0.5-0.5-0.5H38.1c-0.3,0-0.5,0.2-0.5,0.5V85.5z"/>
		</g>
		<g>
			<path class="st0" d="M22.6,31.8H16c-1.5,0-2.7-1.2-2.7-2.7V24c0-1.5,1.2-2.7,2.7-2.7h6.6c1.5,0,2.7,1.2,2.7,2.7V29
				C25.3,30.6,24.1,31.8,22.6,31.8z M16.6,28.5H22v-4h-5.5V28.5z"/>
		</g>
		<g>
			<path class="st0" d="M22.6,44.1H16c-1.5,0-2.7-1.2-2.7-2.7v-5.1c0-1.5,1.2-2.7,2.7-2.7h6.6c1.5,0,2.7,1.2,2.7,2.7v5.1
				C25.3,42.8,24.1,44.1,22.6,44.1z M16.6,40.8H22v-4h-5.5V40.8z"/>
		</g>
		<g>
			<path class="st0" d="M22.6,56.4H16c-1.5,0-2.7-1.2-2.7-2.7v-5.1c0-1.5,1.2-2.7,2.7-2.7h6.6c1.5,0,2.7,1.2,2.7,2.7v5.1
				C25.3,55.1,24.1,56.4,22.6,56.4z M16.6,53.1H22v-4h-5.5V53.1z"/>
		</g>
		<g>
			<path class="st0" d="M36.8,31.8h-6.6c-1.5,0-2.7-1.2-2.7-2.7V24c0-1.5,1.2-2.7,2.7-2.7h6.6c1.5,0,2.7,1.2,2.7,2.7V29
				C39.5,30.6,38.3,31.8,36.8,31.8z M30.8,28.5h5.5v-4h-5.5V28.5z"/>
		</g>
		<g>
			<path class="st0" d="M36.8,44.1h-6.6c-1.5,0-2.7-1.2-2.7-2.7v-5.1c0-1.5,1.2-2.7,2.7-2.7h6.6c1.5,0,2.7,1.2,2.7,2.7v5.1
				C39.5,42.8,38.3,44.1,36.8,44.1z M30.8,40.8h5.5v-4h-5.5V40.8z"/>
		</g>
		<g>
			<path class="st0" d="M36.8,56.4h-6.6c-1.5,0-2.7-1.2-2.7-2.7v-5.1c0-1.5,1.2-2.7,2.7-2.7h6.6c1.5,0,2.7,1.2,2.7,2.7v5.1
				C39.5,55.1,38.3,56.4,36.8,56.4z M30.8,53.1h5.5v-4h-5.5V53.1z"/>
		</g>
		<g>
			<path class="st0" d="M51,31.8h-6.6c-1.5,0-2.7-1.2-2.7-2.7V24c0-1.5,1.2-2.7,2.7-2.7H51c1.5,0,2.7,1.2,2.7,2.7V29
				C53.7,30.6,52.5,31.8,51,31.8z M45,28.5h5.5v-4H45V28.5z"/>
		</g>
		<g>
			<path class="st0" d="M51,44.1h-6.6c-1.5,0-2.7-1.2-2.7-2.7v-5.1c0-1.5,1.2-2.7,2.7-2.7H51c1.5,0,2.7,1.2,2.7,2.7v5.1
				C53.7,42.8,52.5,44.1,51,44.1z M45,40.8h5.5v-4H45V40.8z"/>
		</g>
		<g>
			<path class="st0" d="M51,56.4h-6.6c-1.5,0-2.7-1.2-2.7-2.7v-5.1c0-1.5,1.2-2.7,2.7-2.7H51c1.5,0,2.7,1.2,2.7,2.7v5.1
				C53.7,55.1,52.5,56.4,51,56.4z M45,53.1h5.5v-4H45V53.1z"/>
		</g>
		<g>
			<path class="st0" d="M28.1,73.2H16c-1.5,0-2.7-1.2-2.7-2.7v-5.3c0-1.5,1.2-2.7,2.7-2.7h12c1.5,0,2.7,1.2,2.7,2.7v5.3
				C30.8,71.9,29.6,73.2,28.1,73.2z M16.6,69.9h10.9v-4.2H16.6V69.9z"/>
		</g>
	</g>
</g>
</svg>
